<svg width="420" height="420" viewBox="0 0 700 700" fill="none" xmlns="http://www.w3.org/2000/svg">
<g clip-path="url(#clip0_1_2)">
<path fill-rule="evenodd" clip-rule="evenodd" d="M153.633 263H341.914C346.129 263 349.547 266.375 349.547 270.538V456.462C349.547 460.626 346.129 464 341.914 464H153.633C149.417 464 146 460.626 146 456.462V270.538C146 266.375 149.417 263 153.633 263ZM259.15 369.935V353.45H186.709V369.935H212.572V443.336H233.161V369.935H259.15ZM267.359 441.398C270.679 443.069 274.605 444.323 279.138 445.159C283.672 445.994 288.45 446.413 293.473 446.413C298.368 446.413 303.018 445.953 307.424 445.033C311.829 444.114 315.692 442.599 319.012 440.488C322.332 438.378 324.961 435.62 326.897 432.214C328.834 428.808 329.802 424.598 329.802 419.583C329.802 415.947 329.249 412.761 328.142 410.024C327.036 407.286 325.44 404.852 323.354 402.721C321.268 400.589 318.767 398.677 315.851 396.985C312.935 395.293 309.648 393.694 305.987 392.19C303.305 391.103 300.9 390.047 298.772 389.024C296.643 388 294.834 386.955 293.345 385.89C291.855 384.824 290.706 383.696 289.897 382.505C289.088 381.314 288.684 379.966 288.684 378.461C288.684 377.082 289.046 375.839 289.77 374.732C290.493 373.624 291.514 372.673 292.834 371.879C294.154 371.085 295.771 370.469 297.687 370.03C299.602 369.592 301.731 369.372 304.071 369.372C305.774 369.372 307.572 369.498 309.467 369.748C311.361 369.999 313.266 370.386 315.181 370.908C317.097 371.43 318.959 372.088 320.768 372.883C322.577 373.677 324.248 374.596 325.78 375.64V356.898C322.672 355.727 319.278 354.86 315.596 354.297C311.914 353.732 307.689 353.45 302.922 353.45C298.07 353.45 293.473 353.962 289.131 354.986C284.789 356.01 280.969 357.608 277.67 359.781C274.371 361.955 271.764 364.723 269.849 368.087C267.933 371.451 266.975 375.473 266.975 380.154C266.975 386.13 268.731 391.229 272.243 395.449C275.755 399.67 281.086 403.243 288.237 406.168C291.047 407.297 293.664 408.404 296.091 409.491C298.517 410.577 300.613 411.706 302.379 412.876C304.146 414.046 305.54 415.32 306.562 416.699C307.583 418.078 308.094 419.645 308.094 421.401C308.094 422.697 307.775 423.898 307.136 425.005C306.497 426.113 305.529 427.074 304.231 427.889C302.933 428.704 301.316 429.341 299.379 429.801C297.442 430.261 295.175 430.49 292.579 430.49C288.152 430.49 283.767 429.728 279.426 428.203C275.085 426.677 271.062 424.389 267.359 421.339V441.398Z" fill="black"/>
<g clip-path="url(#clip1_1_2)">
<path d="M470.126 193.988C478.431 213.205 440.327 225.073 436.8 241.093C433.544 255.792 459.415 272.886 459.426 272.886C455.498 266.799 452.655 261.773 448.715 252.3C442.05 236.28 489.284 221.793 470.126 193.988ZM495.383 220.614C495.383 220.614 462.022 222.725 460.323 244.078C459.568 253.586 469.088 258.659 469.371 265.583C469.584 271.222 463.673 275.929 463.673 275.929C463.673 275.929 474.397 273.912 477.759 265.289C481.475 255.721 470.551 249.186 471.648 241.53C472.71 234.204 495.383 220.614 495.383 220.614ZM503.476 269.936C499.984 269.783 496.103 270.939 492.587 273.464C499.477 271.989 505.305 276.201 505.305 281.061C505.305 292.008 489.485 302.354 489.485 302.354C489.485 302.354 513.975 299.558 513.975 281.58C513.975 274.148 509.28 270.208 503.476 269.936ZM442.934 269.96C442.934 269.96 412.369 269.547 412.369 278.194C412.369 287.231 452.396 287.868 480.979 282.3C480.979 282.3 488.612 277.074 490.641 275.127C471.908 278.949 429.156 279.457 429.156 276.153C429.156 273.098 442.934 269.96 442.934 269.96ZM435.55 286.782C430.866 286.782 423.871 290.404 423.871 293.896C423.871 300.915 459.179 306.33 485.321 296.067L476.272 290.522C458.554 296.196 425.888 294.38 435.55 286.782ZM439.903 302.484C433.473 302.484 429.309 306.448 429.309 309.373C429.309 318.386 467.684 319.295 482.89 310.128L473.229 303.982C461.868 308.784 433.344 309.432 439.903 302.484ZM418.491 310.648C408.016 310.435 401.209 315.142 401.209 319.047C401.197 339.809 508.49 338.807 508.49 317.584C508.49 314.069 504.337 312.393 502.839 311.591C511.604 331.882 415.106 330.313 415.106 318.339C415.106 315.614 422.184 312.936 428.766 314.222L423.186 311.049C421.547 310.801 419.978 310.671 418.491 310.648ZM519.803 324.615C503.488 340.069 462.152 345.708 420.579 336.164C462.14 353.163 519.591 343.596 519.803 324.615Z" fill="black"/>
</g>
<g clip-path="url(#clip2_1_2)">
<path d="M376.637 192.627H388.29C391.535 192.627 394.124 189.956 394.124 186.698V175.589C394.124 172.427 391.457 170.052 388.29 169.524C386.286 169.191 384.206 169.039 382.212 169.048C380.217 169.058 378.313 169.228 376.637 169.524C371.7 170.397 370.803 172.222 370.803 175.589V180.035H382.47V181.517H370.803H366.425C363.034 181.517 360.065 183.555 359.136 187.433C358.065 191.877 358.017 194.65 359.136 199.29C359.966 202.744 361.946 205.205 365.337 205.205H369.349V199.875C369.349 196.024 372.68 192.627 376.637 192.627ZM375.903 177.071C374.693 177.071 373.713 176.08 373.713 174.854C373.713 173.625 374.693 172.624 375.903 172.624C377.108 172.624 378.092 173.625 378.092 174.854C378.092 176.08 377.108 177.071 375.903 177.071ZM405.791 187.433C404.953 184.057 403.352 181.517 399.957 181.517H395.579V186.698C395.579 190.715 392.173 194.095 388.29 194.095H376.637C373.445 194.095 370.803 196.827 370.803 200.025V211.134C370.803 214.295 373.553 216.156 376.637 217.062C380.33 218.148 383.871 218.345 388.29 217.062C391.227 216.212 394.124 214.5 394.124 211.134V206.687H382.47V205.205H394.124H399.957C403.348 205.205 404.612 202.84 405.791 199.29C407.009 195.636 406.957 192.121 405.791 187.433ZM389.025 209.651C390.235 209.651 391.214 210.643 391.214 211.868C391.214 213.097 390.235 214.098 389.025 214.098C387.819 214.098 386.835 213.097 386.835 211.868C386.835 210.643 387.819 209.651 389.025 209.651Z" fill="black"/>
</g>
<g clip-path="url(#clip3_1_2)">
<path d="M194.699 583.436C188.721 583.436 183.875 588.344 183.875 594.399C183.875 600.455 188.721 605.363 194.699 605.363C200.676 605.363 205.522 600.455 205.522 594.399C205.522 588.344 200.676 583.436 194.699 583.436Z" fill="black"/>
<path d="M250.992 594.499C250.992 585.891 243.123 578.342 230.595 573.374C230.762 572.255 230.914 571.148 231.021 570.062C232.257 557.694 229.315 548.767 222.742 544.922C215.388 540.62 205 543.743 194.496 552.257C183.992 543.743 173.604 540.62 166.25 544.922C159.677 548.767 156.735 557.694 157.971 570.062C158.078 571.148 158.226 572.259 158.397 573.382C157.353 573.786 156.328 574.214 155.344 574.662C144.159 579.756 138 586.808 138 594.499C138 603.106 145.869 610.656 158.397 615.624C158.226 616.743 158.078 617.849 157.971 618.936C156.735 631.304 159.677 640.23 166.25 644.076C168.51 645.374 171.071 646.038 173.668 645.998C179.895 645.998 187.165 642.678 194.496 636.741C201.823 642.678 209.097 645.998 215.332 645.998C217.929 646.037 220.49 645.373 222.75 644.076C229.323 640.23 232.265 631.304 231.029 618.936C230.922 617.849 230.77 616.743 230.603 615.624C243.131 610.664 251 603.102 251 594.499M215.284 548.452C216.954 548.411 218.605 548.821 220.067 549.64C224.631 552.31 226.68 559.552 225.684 569.508C225.616 570.187 225.536 570.874 225.441 571.564C220.231 569.975 214.897 568.841 209.496 568.176C206.222 563.766 202.581 559.648 198.614 555.868C204.844 550.989 210.692 548.452 215.28 548.452M213.139 605.405C211.123 608.95 208.928 612.388 206.562 615.705C202.552 616.122 198.523 616.33 194.492 616.327C190.462 616.329 186.435 616.122 182.426 615.705C180.066 612.388 177.878 608.95 175.869 605.405C173.853 601.869 172.021 598.229 170.38 594.499C172.021 590.769 173.853 587.129 175.869 583.593C177.875 580.062 180.056 576.636 182.406 573.33C186.422 572.902 190.458 572.689 194.496 572.691C198.526 572.689 202.553 572.897 206.562 573.313C208.92 576.625 211.11 580.056 213.123 583.593C215.138 587.13 216.97 590.77 218.612 594.499C216.97 598.228 215.138 601.868 213.123 605.405M221.355 601.365C222.62 604.861 223.659 608.437 224.464 612.069C220.969 613.174 217.405 614.044 213.797 614.675C215.168 612.58 216.497 610.4 217.783 608.135C219.055 605.897 220.247 603.64 221.371 601.382M186.926 621.533C189.406 621.687 191.937 621.775 194.5 621.775C197.063 621.775 199.61 621.687 202.094 621.533C199.739 624.391 197.202 627.089 194.5 629.611C191.803 627.09 189.273 624.391 186.926 621.533ZM175.199 614.666C171.59 614.039 168.025 613.171 164.528 612.069C165.33 608.442 166.365 604.872 167.625 601.382C168.733 603.64 169.921 605.897 171.213 608.135C172.504 610.373 173.84 612.578 175.199 614.675M167.625 587.612C166.369 584.134 165.337 580.578 164.536 576.965C168.024 575.862 171.579 574.989 175.179 574.351C173.816 576.44 172.48 578.605 171.193 580.863C169.905 583.121 168.729 585.35 167.605 587.612M202.07 567.461C199.59 567.307 197.059 567.218 194.476 567.218C191.914 567.218 189.39 567.299 186.902 567.461C189.249 564.603 191.78 561.904 194.476 559.382C197.18 561.903 199.716 564.602 202.07 567.461ZM217.775 580.863C216.484 578.595 215.148 576.414 213.769 574.319C217.387 574.95 220.96 575.822 224.464 576.928C223.66 580.555 222.625 584.125 221.367 587.616C220.259 585.358 219.067 583.1 217.779 580.867M163.324 569.513C162.316 559.56 164.376 552.314 168.937 549.644C170.4 548.827 172.05 548.417 173.72 548.456C178.308 548.456 184.156 550.993 190.386 555.872C186.416 559.655 182.773 563.775 179.496 568.188C174.097 568.856 168.763 569.986 163.551 571.564C163.46 570.874 163.376 570.191 163.312 569.513M157.552 579.635C158.166 579.365 158.792 579.096 159.43 578.827C160.684 584.187 162.384 589.43 164.512 594.499C162.38 599.578 160.678 604.832 159.426 610.203C149.269 605.982 143.381 600.134 143.381 594.499C143.381 589.159 148.563 583.743 157.552 579.635ZM168.937 639.354C164.376 636.684 162.316 629.438 163.324 619.485C163.388 618.807 163.472 618.124 163.563 617.429C168.773 619.019 174.107 620.152 179.508 620.818C182.783 625.23 186.424 629.35 190.39 633.134C181.704 639.932 173.768 642.173 168.949 639.354M225.68 619.485C226.676 629.442 224.627 636.684 220.063 639.354C215.248 642.181 207.308 639.932 198.626 633.134C202.591 629.35 206.23 625.229 209.504 620.818C214.905 620.153 220.239 619.019 225.449 617.429C225.544 618.124 225.624 618.807 225.692 619.485M229.59 610.195C228.334 604.827 226.631 599.576 224.5 594.499C226.63 589.419 228.332 584.166 229.586 578.795C239.723 583.015 245.627 588.864 245.627 594.499C245.627 600.134 239.739 605.982 229.582 610.203" fill="black"/>
</g>
<g clip-path="url(#clip4_1_2)">
<path d="M457.957 400.041C457.626 400.072 456.572 400.177 455.624 400.252C433.751 402.224 413.262 414.024 400.286 432.161C393.06 442.246 388.439 453.685 386.692 465.802C386.075 470.031 386 471.28 386 477.015C386 482.75 386.075 483.999 386.692 488.228C390.877 517.143 411.456 541.436 439.366 550.437C444.363 552.047 449.632 553.146 455.624 553.808C457.957 554.064 468.043 554.064 470.376 553.808C480.718 552.664 489.48 550.105 498.12 545.695C499.445 545.018 499.701 544.837 499.52 544.687C499.4 544.597 493.755 537.026 486.981 527.874L474.667 511.242L459.237 488.409C450.746 475.856 443.761 465.591 443.701 465.591C443.641 465.576 443.581 475.721 443.551 488.108C443.505 509.797 443.49 510.67 443.219 511.182C442.828 511.92 442.527 512.221 441.895 512.552C441.413 512.793 440.991 512.838 438.718 512.838H436.114L435.422 512.401C434.97 512.115 434.639 511.739 434.413 511.303L434.097 510.625L434.127 480.447L434.172 450.253L434.639 449.666C434.88 449.35 435.391 448.944 435.753 448.748C436.37 448.447 436.611 448.417 439.215 448.417C442.286 448.417 442.798 448.538 443.596 449.411C443.822 449.651 452.176 462.234 462.172 477.391C472.168 492.548 485.837 513.244 492.551 523.404L504.744 541.872L505.361 541.466C510.826 537.914 516.606 532.856 521.183 527.588C530.923 516.405 537.2 502.768 539.308 488.228C539.925 483.999 540 482.75 540 477.015C540 471.28 539.925 470.031 539.308 465.802C535.123 436.888 514.544 412.594 486.634 403.594C481.712 401.998 476.473 400.899 470.602 400.237C469.157 400.087 459.206 399.921 457.957 400.041ZM489.48 446.611C490.202 446.972 490.789 447.665 491 448.387C491.12 448.778 491.151 457.147 491.12 476.007L491.075 503.069L486.303 495.754L481.516 488.439V468.767C481.516 456.048 481.576 448.899 481.667 448.553C481.908 447.71 482.434 447.047 483.157 446.656C483.774 446.34 484 446.31 486.363 446.31C488.591 446.31 488.983 446.34 489.48 446.611Z" fill="black"/>
</g>
<path d="M506.281 96.2281C510.044 81.1781 519.45 73.6531 534.5 73.6531C557.075 73.6531 559.897 90.5844 571.184 93.4062C578.709 95.2875 585.294 92.4656 590.938 84.9406C587.175 99.9906 577.769 107.516 562.719 107.516C540.144 107.516 537.322 90.5844 526.034 87.7625C518.509 85.8813 511.925 88.7031 506.281 96.2281ZM478.062 130.091C481.825 115.041 491.231 107.516 506.281 107.516C528.856 107.516 531.678 124.447 542.966 127.269C550.491 129.15 557.075 126.328 562.719 118.803C558.956 133.853 549.55 141.378 534.5 141.378C511.925 141.378 509.103 124.447 497.816 121.625C490.291 119.744 483.706 122.566 478.062 130.091Z" fill="black"/>
<path d="M101.211 404.396L59.5214 428V409.606L85.4774 395.297L101.211 404.396ZM104.069 401.842V352.402L88.8421 361.29V392.967L104.069 401.756V401.842ZM14.1499 404.396L55.8392 428V409.606L29.8832 395.297L14.1499 404.396ZM11.2917 401.842V352.402L26.5185 361.29V392.967L11.2917 401.842ZM13.0298 349.218L55.8435 325V342.78L28.2523 358.007L13.0298 349.218ZM102.335 349.218L59.5214 325V342.78L87.1083 358.007L102.335 349.218ZM55.8435 405.417L30.2136 391.311V363.312L55.8606 378.127L55.8435 405.417ZM59.5214 405.417L85.1684 391.315V363.316L59.5214 378.131V405.417ZM31.9303 360.149L57.6803 345.943L83.4303 360.149L57.6803 374.968L31.9303 360.149Z" fill="black"/>
<g clip-path="url(#clip5_1_2)">
<path d="M374.383 19C368.038 19.5819 359.662 21.8223 349.379 25.8044C346.294 28.0407 343.067 30.0756 339.72 31.8963L339.76 32.5217C340.013 32.5217 340.298 32.3515 340.71 32.1417C341.129 32.1021 341.379 32.2683 341.379 32.684L342.044 32.3119L342.376 32.2683L342.416 32.5613C342.455 32.8502 340.175 34.6315 335.659 37.8258L336.027 38.4038L335.695 38.4513L334.994 38.1979C334.994 38.4038 334.705 38.5344 334.044 38.574L334.084 38.9065L334.832 39.7377C334.489 39.7326 334.15 39.6614 333.834 39.5279C332.381 39.6506 330.929 40.7273 329.52 42.7183L329.892 43.3002C331.135 42.18 331.839 41.5981 332.045 41.5981L332.132 42.5085C331.926 42.5085 331.594 42.6748 331.182 42.8806L331.97 44.0483C333.414 42.4585 335.073 41.077 336.898 39.9435C337.808 40.1929 338.267 40.4383 338.267 40.7708L338.932 40.7313C343.781 37.1252 348.591 34.5483 353.357 32.9333L353.404 33.5588C352.533 34.8848 351.912 35.5419 351.579 35.5815C351.619 36.0406 351.785 36.4127 352.035 36.7888C352.118 37.62 349.96 43.0548 345.563 53.1723C335.528 76.6452 327.152 93.9708 320.392 105.248C320.392 105.454 320.554 105.786 320.764 106.159C322.422 105.747 323.499 105.379 323.954 104.963L324.334 104.916L324.374 105.541L324.999 105.497L325.656 105.125C325.656 105.331 325.906 105.414 326.321 105.371L326.369 106C326.408 106.622 326.072 107.572 325.284 108.858C324.58 109.65 323.879 111.261 323.091 113.707L323.131 114L323.756 113.96C326.448 110.936 328.522 107.944 329.931 105.038C337.852 102.719 343.865 100.439 348.052 98.1983C352.24 97.8262 355.478 96.7535 357.632 94.9287L357.588 94.5962L356.009 95.0515L355.637 95.091L355.597 94.7585C358.669 94.2994 360.822 93.5987 361.986 92.6844C367.999 88.0412 372.515 84.7677 375.583 82.8202C385.083 75.8535 389.56 69.1363 389.021 62.7515C388.982 62.0865 386.864 59.474 382.759 54.914C382.676 54.0431 384.125 52.7963 387.026 51.1377L395.283 43.8781C397.104 41.515 398.228 37.7031 398.6 32.4385L398.478 31.1917C398.145 27.5025 395.485 24.514 390.426 22.23C387.446 20.1994 382.094 19.1227 374.383 19ZM384.378 23.1048C390.514 23.3542 393.668 24.4308 393.835 26.3388L393.585 26.9642L384.378 23.1048ZM378.512 28.3179C382.72 28.2546 384.912 29.3748 385.13 31.734L385.748 31.6865L385.625 30.111L386.29 30.0715C387.905 30.9423 388.772 32.019 388.855 33.3015C388.938 34.1723 388.483 35.2569 387.45 36.5433C387.034 36.5829 386.785 36.29 386.745 35.6685L386.08 35.716L385.918 37.5765C383.139 41.7248 381.148 43.8385 379.901 43.9652C378.781 45.4971 378.072 46.2888 377.784 46.3283C376.913 47.3654 374.554 49.1467 370.659 51.6325C369.372 51.7592 364.598 53.584 356.345 57.19C355.934 56.995 355.474 56.9235 355.023 56.9842L354.976 56.4023C354.896 55.199 355.399 53.7067 356.599 51.8819C357.224 48.4777 357.925 46.5302 358.712 46.075L365.592 30.6138C365.513 29.6598 366.965 28.9117 369.99 28.4169L370.987 28.3298L371.066 29.2046C372.902 28.915 374.741 28.6511 376.584 28.4129C377.225 28.3596 377.868 28.3279 378.512 28.3179ZM392.837 29.8617H392.944C393.494 29.9092 394.084 30.9027 394.709 32.8067L394.749 33.3885C394.412 33.4281 393.799 32.4306 392.885 30.4435L392.837 29.8617ZM353.903 39.6902H354.188L354.275 40.6006C353.982 40.6402 353.574 41.0598 353.076 41.9306L353.028 41.3131C353.61 40.6085 353.899 40.0623 353.899 39.6902H353.903ZM334.167 40.1929L334.206 40.4779C333.996 40.4779 333.668 40.6481 333.256 40.854L332.92 40.8935L332.88 40.3156L334.167 40.1929ZM351.128 46.1542L351.251 47.401L350.918 47.4406L350.796 46.2017L351.128 46.1542ZM350.336 48.3985C350.257 49.4356 350.004 49.97 349.466 50.0135L349.133 50.0531C349.505 49.3485 349.715 48.8538 349.675 48.4817L350.336 48.3985ZM348.971 51.6285L349.01 51.9215L348.429 52.911L347.803 52.9585L347.764 52.6656C348.385 52.626 348.678 52.2975 348.634 51.676L348.971 51.6285ZM347.554 54.5379L347.395 56.0658L347.059 56.1054L346.94 54.5735L347.554 54.5379ZM381.188 55.6463L382.553 56.4854C382.593 56.8971 382.387 57.1465 381.975 57.186C381.394 56.814 380.938 56.6477 380.606 56.6477L380.523 55.7373L381.188 55.6463ZM354.853 59.1731L354.9 59.755L353.61 59.8856L353.57 59.2998L354.853 59.1731ZM376.081 61.3304C376.992 61.746 377.455 62.1617 377.499 62.4902L377.538 62.7871C376.667 62.8663 375.876 62.411 375.131 61.4175L376.081 61.3304ZM386.373 62.3279C387.078 62.6208 387.406 62.9138 387.45 63.2027L387.656 65.645C387.367 66.31 387.078 66.6425 386.745 66.6425L386.373 62.3279ZM369.768 62.5852C373.093 62.5298 375.634 63.3135 377.376 64.98L377.495 66.2269C376.006 70.5415 374.348 73.0313 372.566 73.819L364.27 80.4135C358.095 84.4748 354.77 86.5015 354.275 86.541C344.446 91.9758 338.315 94.7546 335.948 94.9604L335.572 95C335.904 93.8402 340.262 84.8865 348.721 68.0517C352.454 67.7192 358.34 65.9735 366.344 62.8267L368.291 62.6604C368.798 62.6208 369.293 62.5971 369.768 62.5852ZM357.675 64.5248L357.715 64.8177L356.393 64.9404L356.345 64.6475L357.675 64.5248ZM336.989 84.5935C336.573 86.7112 336.114 87.7919 335.659 87.8354L335.619 87.5385C335.536 86.4619 335.991 85.5079 336.989 84.5935ZM365.097 85.9235L365.137 86.5054C365.176 86.7548 364.226 87.5385 362.362 88.9081C356.844 91.6037 353.614 93.4681 352.656 94.4221C346.687 96.4923 343.742 97.7827 343.781 98.2775C338.477 100.395 334.994 101.931 333.339 102.885C332.963 102.925 332.385 102.762 331.637 102.43C331.554 101.353 332.005 100.474 333.082 99.7698C333.992 99.6906 334.915 99.8133 335.742 100.189C336.736 99.6906 338.434 99.1048 340.884 98.5269L340.836 97.9094L338.889 98.0677C339.138 97.7392 341.007 96.8683 344.573 95.4156L345.567 95.3365L345.606 95.6254C343.948 95.7521 342.994 96.2865 342.784 97.1573C342.824 97.5294 343.037 97.7392 343.449 97.6996C344.652 96.8683 345.274 96.4171 345.274 96.2904C347.68 95.8352 354.275 92.3519 365.097 85.9235ZM335.077 88.7854L335.117 89.0704C335.156 89.486 334.95 89.7433 334.535 89.7829L334.495 89.49C334.456 89.114 334.661 88.8685 335.077 88.7854ZM350 92.4944C350.352 92.4865 350.55 92.6883 350.586 93.0129C349.798 93.096 348.345 93.7175 346.149 94.9604L345.816 95L345.776 94.3825C347.313 94.2813 348.758 93.6192 349.838 92.5221C349.893 92.5102 349.949 92.4983 349.996 92.4944H350ZM335.497 97.4146L335.536 97.7392C335.283 97.7392 334.99 97.9094 334.574 98.1152L333.957 98.1548C333.917 97.8658 334.084 97.6165 334.499 97.4898L335.497 97.4146ZM327.905 101.187L328.605 101.472C328.356 103.336 327.821 104.294 326.864 104.377C326.231 104.074 325.534 103.931 324.833 103.962L324.75 103.051C324.71 102.675 324.92 102.469 325.375 102.347C325.791 102.307 326.036 102.588 326.08 103.21C327.196 101.844 327.825 101.187 327.905 101.187Z" fill="black"/>
</g>
<g clip-path="url(#clip6_1_2)">
<path d="M566.875 274.082C566.875 274.082 564.635 272.449 567.323 270.269L573.588 264.607C573.588 264.607 575.381 262.7 577.276 264.361L635.089 308.604V329.819C635.089 329.819 635.061 333.151 630.831 332.783L566.875 274.082Z" fill="black"/>
<path d="M581.776 287.757L566.875 301.451C566.875 301.451 565.344 302.602 566.875 304.66L573.793 311.02C573.793 311.02 575.437 312.804 577.864 310.775L593.662 298.667L581.776 287.757Z" fill="black"/>
<path d="M607.937 287.87L635.265 266.777L635.087 245.675C635.087 245.675 633.92 241.069 630.027 243.466L593.661 276.923L607.937 287.87Z" fill="black"/>
<path d="M630.83 332.812C632.417 334.453 634.34 333.916 634.34 333.916L655.638 323.308C658.365 321.43 657.982 319.099 657.982 319.099V255.754C657.982 252.97 655.162 252.007 655.162 252.007L636.702 243.013C632.669 240.494 630.027 243.466 630.027 243.466C630.027 243.466 633.425 240.994 635.087 245.675V329.433C635.087 330.009 634.966 330.575 634.723 331.084C634.238 332.075 633.183 333 630.652 332.613L630.83 332.812Z" fill="black"/>
</g>
<g clip-path="url(#clip7_1_2)">
<path d="M306.829 196.16V196.185C306.829 197.369 307.295 198.445 308.059 199.235C308.971 200.08 310.201 200.598 311.549 200.598C311.708 200.598 311.862 200.593 312.021 200.577H312V205.959C311.867 205.948 311.708 205.938 311.549 205.938C310.201 205.938 308.971 206.456 308.054 207.307L308.059 207.301C307.295 208.106 306.829 209.198 306.829 210.397V210.474V210.469C306.829 211.685 306.925 213.351 307.116 215.466C307.307 217.581 307.403 219.407 307.403 220.944C307.434 221.241 307.454 221.585 307.454 221.933C307.454 224.091 306.752 226.085 305.558 227.699L305.578 227.673C304.174 228.893 302.324 229.636 300.305 229.636C300.028 229.636 299.756 229.621 299.49 229.595L299.526 229.6H295.682V224.803H296.856V224.609C296.968 224.619 297.097 224.629 297.23 224.629C298.122 224.629 298.936 224.291 299.551 223.742L299.546 223.748C300.049 222.958 300.346 221.995 300.346 220.96C300.346 220.76 300.336 220.56 300.31 220.36V220.386L299.926 210.392C299.91 210.207 299.905 209.992 299.905 209.777C299.905 208.198 300.305 206.717 301.007 205.421L300.981 205.467C301.76 204.344 302.939 203.54 304.307 203.263L304.343 203.258V202.873C302.96 202.597 301.786 201.833 300.992 200.772L300.981 200.757C300.3 199.511 299.895 198.03 299.895 196.457C299.895 196.211 299.905 195.965 299.926 195.724V195.755L300.31 185.761C300.33 185.587 300.341 185.382 300.341 185.177C300.341 184.157 300.079 183.199 299.623 182.368L299.639 182.399C299.029 181.84 298.214 181.502 297.322 181.502C297.158 181.502 296.994 181.512 296.835 181.538H296.856H295.703V176.936H299.546C299.782 176.91 300.054 176.9 300.325 176.9C302.345 176.9 304.195 177.643 305.609 178.868L305.599 178.858C306.773 180.446 307.475 182.44 307.475 184.598C307.475 184.946 307.454 185.29 307.418 185.628L307.423 185.587C307.423 187.124 307.328 188.951 307.136 191.065C306.945 193.18 306.844 194.878 306.834 196.16H306.829ZM286.452 202.31C291.966 204.103 294.724 207.18 294.724 211.54V211.688C294.724 214.456 293.453 216.926 291.459 218.546L291.444 218.556C289.153 220.314 286.242 221.37 283.09 221.37C282.782 221.37 282.475 221.359 282.173 221.339H282.214C280.061 221.288 278.021 220.872 276.135 220.145L276.258 220.186C274.183 219.489 272.389 218.438 270.862 217.095L270.877 217.111L274.91 211.155C277.032 212.959 279.769 214.097 282.767 214.23H282.793C285.355 214.23 286.636 213.399 286.636 211.735C286.636 210.966 286.059 210.197 284.904 209.428C283.823 208.859 282.547 208.337 281.224 207.932L281.066 207.891L280.297 207.506C275.042 205.456 272.415 202.508 272.415 198.661C272.415 198.584 272.409 198.497 272.409 198.404C272.409 195.75 273.639 193.382 275.566 191.85L275.582 191.834C277.724 190.204 280.44 189.22 283.382 189.22C283.613 189.22 283.843 189.226 284.074 189.241H284.043C288.036 189.354 291.674 190.784 294.555 193.11L294.524 193.085L290.501 198.456C288.722 197.01 286.462 196.093 283.992 195.96H283.966C281.78 195.96 280.686 196.729 280.686 198.266C280.758 199.173 281.276 199.947 282.019 200.372L282.034 200.378C282.921 200.931 283.941 201.387 285.022 201.7L285.109 201.72C285.758 201.973 286.213 202.165 286.472 202.294L286.452 202.31ZM217.439 213.656H218.592L219.735 220.191C218.453 220.683 216.967 220.965 215.419 220.965C215.317 220.965 215.209 220.965 215.107 220.96H215.122C209.608 220.96 206.85 217.499 206.85 210.576V181.743H204.155C204.037 181.728 203.898 181.717 203.755 181.717C202.899 181.717 202.125 182.056 201.556 182.609C201.116 183.414 200.854 184.372 200.854 185.387C200.854 185.592 200.864 185.797 200.885 185.992V185.966L201.08 195.775C201.095 195.991 201.105 196.242 201.105 196.498C201.105 198.092 200.716 199.593 200.029 200.921L200.055 200.87C199.291 201.971 198.097 202.73 196.713 202.884H196.693V203.268C198.097 203.55 199.276 204.355 200.044 205.462L200.055 205.477C200.736 206.722 201.131 208.209 201.131 209.782C201.131 209.997 201.126 210.212 201.11 210.423V210.392C201.11 211.673 201.045 213.467 200.916 215.773V220.386C200.9 220.555 200.89 220.749 200.89 220.944C200.89 222.005 201.146 222.999 201.602 223.881L201.587 223.845C202.135 224.45 202.92 224.829 203.801 224.829C203.934 224.829 204.068 224.819 204.201 224.803H204.185H205.344V229.416H201.479C201.249 229.441 200.977 229.452 200.706 229.452C198.681 229.452 196.831 228.709 195.411 227.473L195.422 227.484C194.248 225.895 193.546 223.901 193.546 221.744C193.546 221.395 193.566 221.047 193.602 220.708L193.597 220.749C193.597 219.212 193.693 217.386 193.884 215.271C194.075 213.156 194.171 211.49 194.171 210.274C194.171 210.238 194.171 210.202 194.171 210.161C194.171 209.003 193.7 207.957 192.941 207.199C192.014 206.42 190.809 205.948 189.492 205.948C189.318 205.948 189.149 205.959 188.985 205.974H189.005V200.593C189.138 200.603 189.297 200.613 189.456 200.613C190.804 200.613 192.034 200.096 192.951 199.245L192.946 199.25C193.71 198.461 194.176 197.385 194.176 196.201C194.176 196.19 194.176 196.18 194.176 196.17C194.176 195.015 194.081 193.35 193.889 191.173C193.698 188.997 193.602 187.143 193.602 185.612C193.572 185.315 193.551 184.972 193.551 184.623C193.551 182.466 194.253 180.472 195.447 178.858L195.427 178.883C196.831 177.664 198.681 176.92 200.7 176.92C200.977 176.92 201.249 176.936 201.515 176.961L201.479 176.956H215.901V211.181C215.891 211.263 215.891 211.355 215.891 211.453C215.891 212.068 216.075 212.637 216.388 213.113L216.383 213.103C216.629 213.426 217.008 213.636 217.439 213.646V213.656ZM262.036 202.31C267.551 204.103 270.308 207.18 270.308 211.54V211.688C270.308 214.456 269.037 216.926 267.044 218.546L267.028 218.556C264.737 220.314 261.826 221.37 258.674 221.37C258.367 221.37 258.059 221.359 257.757 221.339H257.798C255.605 221.313 253.519 220.888 251.592 220.14L251.715 220.181C249.613 219.432 247.794 218.387 246.205 217.08L246.236 217.106L250.269 211.15C252.391 212.954 255.128 214.092 258.126 214.225H258.152C260.714 214.225 261.995 213.393 261.995 211.729C261.995 210.961 261.418 210.192 260.263 209.423C259.182 208.854 257.906 208.332 256.583 207.927L256.425 207.886L255.845 207.501C250.461 205.451 247.768 202.503 247.768 198.656C247.768 198.589 247.763 198.517 247.763 198.44C247.763 195.75 249.045 193.361 251.028 191.844L251.048 191.829C253.237 190.199 255.994 189.22 258.977 189.22C259.197 189.22 259.418 189.226 259.633 189.236H259.602C263.533 189.328 267.115 190.768 269.914 193.105L269.888 193.085L265.86 198.461C264.133 197.041 261.944 196.124 259.551 195.965H259.515C257.209 195.965 256.056 196.734 256.056 198.271C256.061 199.199 256.604 200.003 257.388 200.383L257.403 200.388C258.346 200.957 259.438 201.418 260.596 201.715L260.683 201.736C261.319 201.989 261.765 202.18 262.021 202.31H262.036ZM232.24 189.046C232.429 189.036 232.655 189.031 232.875 189.031C236.432 189.031 239.62 190.635 241.741 193.162L241.757 193.177C243.863 195.868 245.129 199.296 245.129 203.022C245.129 203.242 245.124 203.468 245.114 203.688V203.658C245.098 204.893 244.96 206.087 244.709 207.235L244.729 207.117V207.312H226.474C226.648 209.3 227.607 211.032 229.031 212.221L229.042 212.232C230.277 213.262 231.876 213.887 233.623 213.887C233.885 213.887 234.146 213.872 234.402 213.846L234.372 213.851C236.862 213.795 239.174 213.088 241.162 211.893L241.101 211.929L243.971 217.311C240.983 219.468 237.247 220.765 233.203 220.77C233.029 220.775 232.829 220.78 232.624 220.78C228.58 220.78 224.916 219.161 222.241 216.542C219.555 213.718 217.905 209.895 217.905 205.682C217.905 205.477 217.91 205.277 217.915 205.077V205.108C217.9 204.831 217.89 204.503 217.89 204.175C217.89 200.029 219.509 196.262 222.154 193.469L222.149 193.474C224.66 190.748 228.247 189.046 232.229 189.046H232.255H232.24ZM226.474 201.736H237.431C237.431 197.766 235.701 195.78 232.24 195.78C230.779 195.78 229.457 196.37 228.493 197.318C227.361 198.471 226.618 200.003 226.474 201.71V201.736Z" fill="black"/>
</g>
<path d="M296.5 609.246H485.5V672.257H391V682.76H349.001V672.251H296.5V609.246ZM307.003 661.754H328.002V630.245H338.499V661.748H349.001V619.749H307.003V661.754ZM359.504 619.749V672.257H380.504V661.754H401.503V619.749H359.504ZM380.504 630.252H391V651.258H380.497L380.504 630.252ZM412.006 619.749V661.754H433.005V630.245H443.508V661.748H454.011V630.245H464.514V661.748H475.017V619.749H412.006Z" fill="black"/>
<path d="M652.823 432.499L653.733 431.123L655.321 432.087L656.024 432.59C657.722 433.9 661.293 437.246 662.063 442.8C663.415 442.557 664.779 442.436 666.143 442.436C669.38 442.436 671.556 443.188 672.793 443.812L673.43 444.158L673.842 444.431L675 445.376L674.6 446.589C673.978 448.251 673.006 449.76 671.75 451.014C669.992 452.827 666.9 454.967 661.996 455.246L660.917 455.276H660.02C657.776 461.199 654.763 467.874 649.701 473.864C646.698 477.423 643.135 480.47 639.152 482.885C634.378 485.717 629.15 487.703 623.699 488.753C619.795 489.511 615.83 489.887 611.859 489.875C603.068 489.875 595.308 488.129 590.537 485.074C586.275 482.351 583.002 477.908 580.801 471.875C578.875 466.363 577.929 460.557 578.006 454.719C577.996 453.97 578.255 453.243 578.735 452.669C579.216 452.095 579.886 451.712 580.625 451.59L581.037 451.56H644.936L645.494 451.518L646.397 451.421C647.949 451.214 650.313 450.754 651.975 449.784C649.986 446.492 649.422 442.642 650.35 438.544C650.738 436.834 651.35 435.183 652.169 433.633L652.823 432.499ZM595.521 440.065L595.763 440.108C595.874 440.149 595.974 440.216 596.055 440.302C596.136 440.388 596.196 440.492 596.23 440.605L596.266 440.848V448.82L596.23 449.068C596.195 449.182 596.134 449.286 596.052 449.372C595.97 449.459 595.869 449.525 595.757 449.565L595.521 449.602H586.96C586.801 449.6 586.646 449.547 586.519 449.451C586.391 449.355 586.297 449.221 586.251 449.068L586.209 448.826V440.842L586.251 440.599C586.285 440.484 586.346 440.379 586.428 440.291C586.51 440.204 586.611 440.137 586.724 440.096L586.96 440.059L595.521 440.065ZM607.324 440.065L607.561 440.108C607.673 440.149 607.774 440.215 607.856 440.301C607.938 440.387 607.999 440.491 608.034 440.605L608.07 440.848V448.82L608.028 449.068C607.993 449.182 607.932 449.286 607.85 449.372C607.768 449.459 607.667 449.525 607.555 449.565L607.318 449.602H598.758C598.599 449.599 598.444 449.546 598.317 449.45C598.19 449.354 598.096 449.221 598.049 449.068L598.006 448.832V440.848C598.005 440.685 598.054 440.527 598.146 440.393C598.238 440.26 598.369 440.158 598.522 440.102L598.758 440.059L607.324 440.065ZM619.304 440.065L619.54 440.108C619.651 440.149 619.751 440.216 619.832 440.302C619.913 440.388 619.973 440.492 620.007 440.605L620.049 440.848V448.82L620.007 449.068C619.972 449.182 619.911 449.286 619.829 449.372C619.747 449.459 619.646 449.525 619.534 449.565L619.298 449.602H610.737C610.578 449.6 610.423 449.547 610.296 449.451C610.168 449.355 610.074 449.221 610.028 449.068L609.992 448.826V440.842L610.028 440.599C610.062 440.484 610.123 440.379 610.205 440.291C610.287 440.204 610.389 440.137 610.501 440.096L610.737 440.059L619.304 440.065ZM631.138 440.065L631.374 440.108C631.486 440.149 631.587 440.215 631.669 440.301C631.751 440.387 631.812 440.491 631.847 440.605L631.89 440.848V448.82C631.891 448.982 631.842 449.141 631.75 449.274C631.658 449.408 631.526 449.509 631.374 449.565L631.132 449.602H622.578C622.418 449.6 622.263 449.547 622.136 449.451C622.008 449.355 621.915 449.221 621.868 449.068L621.832 448.826V440.842L621.868 440.599C621.902 440.484 621.963 440.379 622.045 440.291C622.127 440.204 622.229 440.137 622.341 440.096L622.584 440.059H631.144L631.138 440.065ZM643.081 440.065L643.317 440.108C643.429 440.149 643.53 440.215 643.612 440.301C643.694 440.387 643.755 440.491 643.79 440.605L643.827 440.848V448.82C643.828 448.982 643.779 449.141 643.687 449.274C643.595 449.408 643.463 449.509 643.311 449.565L643.075 449.602H634.515C634.355 449.6 634.2 449.547 634.073 449.451C633.945 449.355 633.852 449.221 633.805 449.068L633.769 448.826V440.842L633.805 440.599C633.84 440.484 633.9 440.379 633.982 440.291C634.064 440.204 634.166 440.137 634.278 440.096L634.521 440.059H643.075L643.081 440.065ZM607.312 428.595L607.555 428.638C607.665 428.679 607.764 428.744 607.845 428.829C607.926 428.914 607.986 429.017 608.021 429.129L608.064 429.377V437.349C608.065 437.512 608.016 437.67 607.924 437.804C607.832 437.937 607.701 438.039 607.549 438.095L607.312 438.138H598.758C598.597 438.134 598.442 438.079 598.314 437.981C598.187 437.883 598.094 437.746 598.049 437.592L598.006 437.349V429.377C598.006 429.216 598.056 429.059 598.148 428.927C598.24 428.794 598.37 428.693 598.522 428.638L598.758 428.595H607.312ZM619.292 428.595L619.534 428.638C619.644 428.679 619.744 428.744 619.825 428.829C619.905 428.914 619.966 429.017 620.001 429.129L620.043 429.377V437.349C620.045 437.512 619.996 437.67 619.904 437.804C619.811 437.937 619.68 438.039 619.528 438.095L619.292 438.138H610.737C610.577 438.134 610.421 438.079 610.294 437.981C610.166 437.883 610.073 437.746 610.028 437.592L609.992 437.349V429.377L610.028 429.135C610.063 429.021 610.124 428.917 610.206 428.831C610.288 428.744 610.389 428.678 610.501 428.638L610.737 428.595H619.292ZM631.132 428.595C631.459 428.595 631.738 428.82 631.841 429.129L631.883 429.377V437.349C631.885 437.512 631.836 437.67 631.744 437.804C631.652 437.937 631.52 438.039 631.368 438.095L631.126 438.138H622.578C622.417 438.134 622.261 438.079 622.134 437.981C622.006 437.883 621.913 437.746 621.868 437.592L621.832 437.349V429.377L621.868 429.135C621.903 429.021 621.964 428.917 622.046 428.831C622.128 428.744 622.229 428.678 622.341 428.638L622.584 428.595H631.144H631.132ZM631.132 417.125C631.459 417.125 631.738 417.349 631.841 417.659L631.883 417.901V425.879C631.885 426.041 631.836 426.2 631.744 426.334C631.652 426.467 631.52 426.569 631.368 426.625L631.126 426.661H622.578C622.418 426.659 622.263 426.606 622.136 426.51C622.008 426.415 621.915 426.281 621.868 426.128L621.832 425.885V417.901L621.868 417.659C621.903 417.545 621.964 417.441 622.046 417.354C622.128 417.268 622.229 417.202 622.341 417.161L622.578 417.125H631.138H631.132Z" fill="black"/>
<g clip-path="url(#clip8_1_2)">
<path d="M39 483H110V554H39V483ZM104.184 537.066C103.666 533.827 101.557 531.105 95.3 528.567C93.1227 527.547 90.7028 526.837 89.9839 525.195C89.7147 524.218 89.6733 523.686 89.8478 523.109C90.2916 521.198 92.5547 520.624 94.3297 521.157C95.4835 521.512 96.5485 522.399 97.217 523.819C100.276 521.819 100.276 521.819 102.409 520.491C101.61 519.248 101.214 518.713 100.675 518.183C98.8116 516.098 96.3295 515.033 92.2914 515.125L90.2058 515.388C88.206 515.876 86.3008 516.941 85.147 518.361C81.7745 522.18 82.7478 528.836 86.8303 531.588C90.8685 534.605 96.7733 535.268 97.5277 538.111C98.2377 541.572 94.9539 542.681 91.7116 542.282C89.3124 541.75 87.9841 540.548 86.5197 538.33L81.106 541.439C81.7272 542.859 82.4372 543.477 83.5022 544.72C88.6497 549.915 101.518 549.648 103.829 541.75C103.915 541.483 104.539 539.664 104.048 536.868L104.184 537.066ZM77.6092 515.633H70.9589C70.9589 521.367 70.9322 527.064 70.9322 532.806C70.9322 536.451 71.1186 539.797 70.524 540.827C69.5477 542.865 67.0332 542.604 65.8912 542.247C64.7197 541.667 64.1251 540.868 63.4358 539.717C63.2495 539.407 63.1104 539.137 63.0601 539.137L57.6612 542.465C58.5635 544.329 59.8799 545.933 61.578 546.953C64.1074 548.462 67.5065 548.95 71.0654 548.151C73.3817 547.483 75.3786 546.107 76.4229 543.977C77.9317 541.226 77.6122 537.853 77.5974 534.079C77.6329 528.002 77.5974 521.923 77.5974 515.799L77.6092 515.633Z" fill="black"/>
</g>
<path d="M571.5 614.879C570.606 614.879 569.771 614.641 568.997 614.224L561.069 609.515C559.877 608.859 560.473 608.621 560.831 608.502C562.44 607.965 562.738 607.846 564.407 606.892C564.586 606.773 564.824 606.833 565.003 606.952L571.083 610.588C571.321 610.707 571.619 610.707 571.798 610.588L595.58 596.819C595.819 596.7 595.938 596.462 595.938 596.164V568.686C595.938 568.388 595.819 568.15 595.58 568.03L571.798 554.321C571.56 554.202 571.262 554.202 571.083 554.321L547.301 568.03C547.062 568.15 546.943 568.448 546.943 568.686V596.164C546.943 596.402 547.062 596.7 547.301 596.819L553.797 600.574C557.314 602.362 559.52 600.276 559.52 598.19V571.07C559.52 570.713 559.818 570.355 560.235 570.355H563.275C563.632 570.355 563.99 570.653 563.99 571.07V598.19C563.99 602.899 561.427 605.641 556.957 605.641C555.586 605.641 554.513 605.641 551.473 604.151L545.214 600.574C543.665 599.68 542.711 598.011 542.711 596.223V568.746C542.711 566.957 543.665 565.289 545.214 564.394L568.997 550.626C570.487 549.791 572.513 549.791 574.003 550.626L597.786 564.394C599.335 565.289 600.289 566.957 600.289 568.746V596.223C600.289 598.011 599.335 599.68 597.786 600.574L574.003 614.343C573.229 614.701 572.334 614.879 571.5 614.879ZM578.831 595.985C568.401 595.985 566.255 591.216 566.255 587.163C566.255 586.806 566.553 586.448 566.97 586.448H570.069C570.427 586.448 570.725 586.687 570.725 587.044C571.202 590.203 572.573 591.753 578.891 591.753C583.898 591.753 586.043 590.62 586.043 587.938C586.043 586.388 585.447 585.256 577.639 584.481C571.142 583.825 567.089 582.395 567.089 577.209C567.089 572.381 571.142 569.52 577.937 569.52C585.567 569.52 589.322 572.143 589.799 577.865C589.799 578.044 589.739 578.223 589.62 578.401C589.501 578.521 589.322 578.64 589.143 578.64H586.043C585.745 578.64 585.447 578.401 585.388 578.103C584.673 574.825 582.825 573.752 577.937 573.752C572.454 573.752 571.798 575.66 571.798 577.09C571.798 578.819 572.573 579.355 579.964 580.309C587.295 581.263 590.752 582.633 590.752 587.759C590.693 593.005 586.401 595.985 578.831 595.985Z" fill="black"/>
<g clip-path="url(#clip9_1_2)">
<path d="M58.3758 212.157L72.4327 204.042C72.6053 203.942 72.8009 203.89 73 203.89C73.1991 203.89 73.3947 203.942 73.5673 204.042L87.6242 212.157C87.7971 212.257 87.9406 212.401 88.0402 212.574C88.1397 212.747 88.192 212.944 88.1916 213.144V229.371C88.1911 229.57 88.1385 229.766 88.039 229.939C87.9394 230.111 87.7965 230.255 87.6242 230.355L73.5673 238.47C73.3947 238.569 73.1991 238.622 73 238.622C72.8009 238.622 72.6053 238.569 72.4327 238.47L58.3758 230.355C58.2029 230.255 58.0594 230.111 57.9598 229.938C57.8603 229.764 57.808 229.568 57.8084 229.368V213.144C57.8083 212.944 57.8607 212.748 57.9603 212.575C58.0598 212.401 58.2031 212.257 58.3758 212.157ZM109.544 219.551L92.7518 190.336C92.1413 189.279 91.0128 188.499 89.7918 188.499H56.2113C54.9903 188.499 53.8618 189.279 53.2513 190.336L36.4594 219.486C36.1601 220.011 36.0027 220.604 36.0027 221.208C36.0027 221.812 36.1601 222.406 36.4594 222.93L53.2543 251.907C53.8618 252.962 54.9903 253.501 56.2113 253.501H89.798C91.0159 253.501 92.1413 252.977 92.7549 251.923L109.547 222.899C109.846 222.392 110.004 221.814 110.004 221.225C110.004 220.636 109.846 220.058 109.547 219.551M95.6409 233.599C95.6352 233.812 95.5742 234.02 95.4639 234.203C95.3537 234.385 95.1979 234.536 95.0119 234.641L73.6167 246.98C73.4326 247.085 73.2243 247.141 73.0123 247.141C72.8004 247.141 72.592 247.085 72.408 246.98L51.0004 234.641C50.8138 234.537 50.6574 234.386 50.5466 234.203C50.4358 234.02 50.3744 233.812 50.3683 233.599V208.913C50.3683 208.482 50.6243 208.084 50.9973 207.871L72.3833 195.532C72.7533 195.316 73.222 195.316 73.592 195.532L94.9996 207.874C95.1868 207.978 95.3437 208.129 95.4551 208.311C95.5665 208.494 95.6284 208.703 95.6347 208.916L95.6409 233.599Z" fill="black"/>
</g>
<path d="M217.141 86.6313L174.352 43.8462C173.209 42.7058 171.63 42 169.886 42C168.141 42 166.563 42.7058 165.419 43.8462L156.554 52.7273L167.824 63.9971C168.543 63.7455 169.369 63.6017 170.232 63.6017C174.378 63.6017 177.738 66.9607 177.738 71.1072C177.738 71.9862 177.587 72.826 177.309 73.6102L177.326 73.5579L188.181 84.4192C188.906 84.161 189.746 84.0107 190.618 84.0107C194.761 84.0107 198.12 87.3698 198.12 91.513C198.12 95.6562 194.761 99.0153 190.618 99.0153C186.475 99.0153 183.116 95.6562 183.116 91.513C183.116 90.4903 183.322 89.5165 183.691 88.6278L183.671 88.6768L173.509 78.567V105.211C176.006 106.469 177.689 109.011 177.689 111.945C177.689 116.095 174.323 119.46 170.173 119.46C166.023 119.46 162.658 116.095 162.658 111.945C162.658 109.873 163.494 108.001 164.85 106.642C165.54 105.952 166.36 105.394 167.272 105.001L167.321 104.982V78.0769C164.569 76.9202 162.674 74.2441 162.674 71.1301C162.674 70.0845 162.887 69.0912 163.272 68.186L163.253 68.2351L152.179 57.1091L122.836 86.432C121.699 87.5789 121 89.1571 121 90.902C121 92.6468 121.703 94.2251 122.84 95.372L165.631 138.151C166.772 139.294 168.35 140 170.095 140C171.84 140 173.415 139.294 174.558 138.151L217.147 95.5615C218.291 94.4211 219 92.8396 219 91.098C219 89.3564 218.291 87.7749 217.147 86.6346L217.141 86.6313Z" fill="black"/>
<path d="M310.941 517.581V520.324H308.194V523.073H310.941V525.821H313.689V523.073H316.438V520.324H313.689V517.581H310.941ZM304.706 517.581H301.956V520.324H299.207V523.073H301.956V525.821H304.704V523.073H307.453V520.324H304.704L304.706 517.581ZM298.198 526.89C297.01 529.001 295.157 530.661 292.929 531.61C290.7 532.559 288.22 532.745 285.874 532.139C283.529 531.533 281.45 530.168 279.96 528.258C278.471 526.347 277.655 523.998 277.639 521.575C277.623 519.153 278.409 516.793 279.873 514.863C281.337 512.934 283.398 511.542 285.736 510.905C288.073 510.268 290.555 510.422 292.796 511.342C295.037 512.262 296.911 513.897 298.126 515.992L307.727 510.471C305.295 506.263 301.541 502.977 297.05 501.122C292.558 499.267 287.579 498.947 282.887 500.212C278.195 501.477 274.051 504.257 271.101 508.118C268.151 511.98 266.558 516.708 266.571 521.568C266.583 526.427 268.2 531.147 271.171 534.993C274.141 538.84 278.299 541.597 282.997 542.838C287.696 544.079 292.673 543.734 297.155 541.855C301.637 539.977 305.374 536.671 307.784 532.451L298.198 526.89Z" fill="black"/>
<path d="M444.328 146.667C443.314 148.468 441.733 149.884 439.831 150.694C437.929 151.504 435.813 151.663 433.811 151.145C431.809 150.628 430.035 149.464 428.764 147.834C427.493 146.204 426.796 144.199 426.782 142.133C426.769 140.066 427.439 138.052 428.689 136.406C429.939 134.759 431.698 133.572 433.692 133.029C435.687 132.485 437.806 132.616 439.718 133.401C441.631 134.186 443.23 135.581 444.267 137.369L452.461 132.658C450.385 129.068 447.182 126.264 443.348 124.681C439.515 123.099 435.266 122.826 431.261 123.905C427.257 124.985 423.721 127.356 421.203 130.651C418.685 133.946 417.325 137.98 417.336 142.126C417.347 146.272 418.727 150.299 421.262 153.581C423.797 156.863 427.345 159.216 431.355 160.274C435.366 161.333 439.613 161.038 443.438 159.436C447.264 157.833 450.453 155.012 452.51 151.412L444.328 146.667Z" fill="black"/>
<g clip-path="url(#clip10_1_2)">
<path d="M561.252 212.563C560.365 214.14 558.982 215.378 557.318 216.087C555.653 216.796 553.801 216.935 552.05 216.482C550.298 216.029 548.746 215.011 547.634 213.584C546.521 212.158 545.912 210.404 545.9 208.596C545.888 206.787 546.475 205.026 547.568 203.585C548.662 202.144 550.201 201.105 551.946 200.63C553.692 200.154 555.545 200.269 557.219 200.956C558.892 201.643 560.291 202.863 561.199 204.428L568.369 200.305C566.552 197.164 563.749 194.711 560.395 193.326C557.041 191.941 553.323 191.702 549.819 192.647C546.315 193.591 543.221 195.666 541.018 198.549C538.814 201.432 537.625 204.962 537.634 208.59C537.644 212.218 538.851 215.741 541.07 218.613C543.288 221.484 546.393 223.543 549.901 224.47C553.41 225.396 557.127 225.138 560.474 223.736C563.821 222.334 566.611 219.865 568.411 216.715L561.252 212.563Z" fill="black"/>
<path d="M570.134 202.3H572.867V205.019H575.601V202.3H578.332V205.019H581.059V207.736H578.33V210.452H581.059V213.17H578.329V215.888H575.601V213.172H572.872V215.89H570.135V213.175H567.403V210.45H570.135V207.739H567.403V205.017H570.137L570.134 202.3ZM572.867 210.454H575.601V207.736H572.867V210.454Z" fill="black"/>
</g>
<g clip-path="url(#clip11_1_2)">
<path d="M565.01 345C564.95 345 564.88 345 564.808 345C560.655 345 556.703 345.862 553.123 347.42L553.313 347.348C549.608 348.94 546.443 351.105 543.775 353.767C541.115 356.435 538.95 359.6 537.43 363.11L537.355 363.305C535.873 366.695 535.008 370.648 535.008 374.8V375.013V375.003V375.205C535.008 379.357 535.87 383.31 537.428 386.89L537.355 386.7C538.945 390.405 541.108 393.568 543.768 396.238C546.435 398.898 549.6 401.065 553.11 402.583L553.305 402.657C556.695 404.14 560.648 405.005 564.8 405.005H565.023H565.01H565.213C569.365 405.005 573.318 404.143 576.898 402.585L576.708 402.657C580.413 401.065 583.578 398.9 586.245 396.238C588.905 393.57 591.073 390.405 592.59 386.895L592.665 386.7C594.148 383.31 595.01 379.36 595.01 375.21C595.01 375.137 595.01 375.065 595.01 374.992V375.003C595.01 374.943 595.01 374.873 595.01 374.8C595.01 370.648 594.148 366.695 592.59 363.115L592.663 363.305C591.07 359.6 588.905 356.435 586.243 353.767C583.575 351.107 580.41 348.942 576.9 347.422L576.705 347.348C573.315 345.865 569.365 345.003 565.215 345.003C565.143 345.003 565.068 345.003 564.995 345.003H565.005L565.01 345ZM571.738 355.308C572.245 354.393 573.095 353.722 574.11 353.462L574.138 353.457C574.453 353.367 574.813 353.315 575.185 353.315C575.94 353.315 576.643 353.53 577.24 353.9L577.223 353.89C578.138 354.397 578.808 355.248 579.068 356.263L579.073 356.29C579.165 356.6 579.218 356.952 579.218 357.32C579.218 358.06 579.003 358.747 578.63 359.327L578.64 359.312C578.133 360.227 577.283 360.897 576.268 361.157L576.243 361.163C575.92 361.26 575.548 361.315 575.163 361.315C574.445 361.315 573.775 361.12 573.2 360.783L573.218 360.792C572.303 360.285 571.633 359.435 571.373 358.42L571.368 358.392C571.273 358.065 571.218 357.688 571.218 357.295C571.218 356.565 571.41 355.88 571.75 355.287L571.74 355.308H571.738ZM565.01 357.59H565.053C565.875 357.59 566.685 357.645 567.478 357.755L567.385 357.745C568.253 357.863 569.015 358.025 569.758 358.235L569.64 358.205C569.773 359.07 570.088 359.843 570.548 360.508L570.535 360.49C571.025 361.203 571.655 361.783 572.39 362.203L572.418 362.218C573.103 362.608 573.913 362.863 574.775 362.928H574.793C574.925 362.94 575.08 362.945 575.235 362.945C575.93 362.945 576.595 362.813 577.205 362.575L577.168 362.587C578.628 364.015 579.84 365.687 580.733 367.545L580.778 367.65C581.665 369.47 582.233 371.597 582.35 373.842L582.353 373.883L576.673 373.945C576.395 370.93 575.003 368.285 572.918 366.393L572.908 366.385C570.903 364.455 568.17 363.265 565.163 363.265C565.108 363.265 565.053 363.265 564.998 363.265H565.005C565.003 363.265 565.003 363.265 565 363.265C564.093 363.265 563.21 363.377 562.368 363.59L562.443 363.575C561.525 363.797 560.735 364.07 559.978 364.41L560.065 364.375L557.288 359.375C558.34 358.837 559.563 358.383 560.843 358.07L560.958 358.047C562.145 357.76 563.508 357.593 564.908 357.593H565.008H565.003L565.01 357.59ZM544.633 379.012C544.615 379.012 544.593 379.012 544.573 379.012C543.483 379.012 542.498 378.56 541.795 377.835C541.068 377.13 540.615 376.145 540.615 375.052C540.615 375.032 540.615 375.013 540.615 374.99C540.615 374.97 540.615 374.95 540.615 374.927C540.615 373.84 541.065 372.858 541.788 372.155C542.49 371.433 543.475 370.982 544.563 370.982H544.633H544.673C545.75 370.982 546.725 371.433 547.415 372.153L547.418 372.155C548.14 372.858 548.59 373.843 548.59 374.93V375V374.997V375.062C548.59 376.15 548.14 377.132 547.418 377.835C546.725 378.562 545.748 379.012 544.668 379.012C544.658 379.012 544.648 379.012 544.638 379.012H544.633ZM548.15 379.383C548.765 378.845 549.273 378.2 549.645 377.475L549.663 377.44C550.033 376.74 550.248 375.907 550.248 375.027C550.248 375.02 550.248 375.01 550.248 375.003C550.248 374.995 550.248 374.99 550.248 374.98C550.248 374.097 550.03 373.268 549.648 372.538L549.663 372.568C549.273 371.808 548.765 371.162 548.158 370.63L548.15 370.622C548.713 368.432 549.638 366.515 550.868 364.835L550.835 364.883C552.093 363.16 553.595 361.708 555.31 360.54L555.373 360.5L558.273 365.438C556.785 366.525 555.573 367.895 554.693 369.478L554.66 369.54C553.788 371.088 553.273 372.935 553.273 374.905V375.008V375.003V375.103C553.273 377.068 553.775 378.915 554.66 380.522L554.63 380.465C555.533 382.125 556.758 383.497 558.235 384.545L558.273 384.57L555.37 389.51C553.593 388.305 552.09 386.85 550.868 385.18L550.833 385.13C549.635 383.498 548.71 381.58 548.175 379.505L548.15 379.39V379.383ZM577.22 396.108C576.645 396.468 575.948 396.683 575.2 396.683C574.83 396.683 574.475 396.63 574.138 396.533L574.165 396.54C573.12 396.26 572.263 395.592 571.738 394.707L571.728 394.69C571.4 394.117 571.205 393.432 571.205 392.702C571.205 392.312 571.26 391.932 571.363 391.575L571.355 391.603C571.623 390.56 572.293 389.71 573.188 389.212L573.208 389.202C573.765 388.872 574.435 388.68 575.153 388.68C575.538 388.68 575.908 388.735 576.26 388.84L576.233 388.833C577.275 389.1 578.125 389.77 578.623 390.665L578.633 390.685C578.995 391.25 579.21 391.937 579.21 392.677C579.21 393.045 579.158 393.4 579.058 393.735L579.065 393.707C578.8 394.747 578.133 395.597 577.24 396.097L577.22 396.108ZM577.16 387.405C576.585 387.177 575.923 387.048 575.228 387.048C575.073 387.048 574.918 387.055 574.765 387.067L574.785 387.065C573.905 387.13 573.095 387.385 572.383 387.79L572.41 387.775C571.65 388.21 571.02 388.79 570.54 389.485L570.528 389.505C570.08 390.153 569.763 390.925 569.635 391.757L569.63 391.788C569.008 391.97 568.245 392.132 567.465 392.24L567.378 392.25C566.678 392.347 565.868 392.405 565.045 392.405C565.03 392.405 565.015 392.405 565 392.405H565.003C564.985 392.405 564.963 392.405 564.943 392.405C563.53 392.405 562.155 392.238 560.84 391.918L560.96 391.943C559.563 391.608 558.34 391.153 557.193 390.57L557.29 390.615L560.068 385.615C560.735 385.918 561.528 386.193 562.348 386.395L562.443 386.415C563.21 386.61 564.093 386.722 565 386.722H565.005H565.16C568.168 386.722 570.9 385.532 572.91 383.6L572.908 383.602C575.005 381.697 576.4 379.05 576.67 376.077L576.673 376.033L582.353 376.095C582.235 378.38 581.668 380.508 580.735 382.425L580.778 382.327C579.838 384.295 578.625 385.972 577.165 387.4L577.163 387.403L577.16 387.405Z" fill="black"/>
</g>
</g>
<defs>
<clipPath id="clip0_1_2">
<rect width="700" height="700" fill="white"/>
</clipPath>
<clipPath id="clip1_1_2">
<rect width="151" height="151" fill="white" transform="translate(385 194)"/>
</clipPath>
<clipPath id="clip2_1_2">
<rect width="49" height="49" fill="white" transform="translate(358 169)"/>
</clipPath>
<clipPath id="clip3_1_2">
<rect width="113" height="103" fill="white" transform="translate(138 543)"/>
</clipPath>
<clipPath id="clip4_1_2">
<rect width="154" height="154" fill="white" transform="translate(386 400)"/>
</clipPath>
<clipPath id="clip5_1_2">
<rect width="95" height="95" fill="white" transform="translate(312 19)"/>
</clipPath>
<clipPath id="clip6_1_2">
<rect width="92" height="92" fill="white" transform="translate(566 242)"/>
</clipPath>
<clipPath id="clip7_1_2">
<rect width="123" height="123" fill="white" transform="translate(189 140)"/>
</clipPath>
<clipPath id="clip8_1_2">
<rect width="71" height="71" fill="white" transform="translate(39 483)"/>
</clipPath>
<clipPath id="clip9_1_2">
<rect width="74" height="74" fill="white" transform="translate(36 184)"/>
</clipPath>
<clipPath id="clip10_1_2">
<rect width="49" height="49" fill="white" transform="translate(535 184)"/>
</clipPath>
<clipPath id="clip11_1_2">
<rect width="60" height="60" fill="white" transform="translate(535 345)"/>
</clipPath>
</defs>
</svg>
